<svg width="207" height="42" viewBox="0 0 207 42" fill="none" xmlns="http://www.w3.org/2000/svg">
<path d="M67.8164 15.2093V20.4843H74.8999V23.8301H67.8164V29.4065H75.8042V32.8428H63.5964V11.7731H75.8042V15.2093H67.8164Z" fill="white"/>
<path d="M78.554 24.4933C78.554 22.7651 78.9057 21.258 79.609 19.9719C80.3123 18.6657 81.287 17.6609 82.5329 16.9576C83.7787 16.2342 85.2055 15.8725 86.8131 15.8725C88.8829 15.8725 90.591 16.3949 91.9374 17.4399C93.3038 18.4647 94.2182 19.9116 94.6803 21.7804H90.1288C89.8877 21.057 89.4757 20.4943 88.893 20.0924C88.3303 19.6704 87.627 19.4594 86.783 19.4594C85.5773 19.4594 84.6227 19.9015 83.9194 20.7857C83.2161 21.6498 82.8644 22.8857 82.8644 24.4933C82.8644 26.0808 83.2161 27.3166 83.9194 28.2008C84.6227 29.0649 85.5773 29.4969 86.783 29.4969C88.4911 29.4969 89.6063 28.7333 90.1288 27.2061H94.6803C94.2182 29.0147 93.3038 30.4515 91.9374 31.5165C90.5709 32.5815 88.8628 33.1141 86.8131 33.1141C85.2055 33.1141 83.7787 32.7624 82.5329 32.0591C81.287 31.3356 80.3123 30.3309 79.609 29.0448C78.9057 27.7386 78.554 26.2214 78.554 24.4933Z" fill="white"/>
<path d="M105.187 33.1141C103.579 33.1141 102.132 32.7624 100.846 32.0591C99.5603 31.3356 98.5455 30.3208 97.802 29.0147C97.0786 27.7085 96.7169 26.2013 96.7169 24.4933C96.7169 22.7852 97.0886 21.278 97.8321 19.9719C98.5957 18.6657 99.6306 17.6609 100.937 16.9576C102.243 16.2342 103.7 15.8725 105.308 15.8725C106.915 15.8725 108.372 16.2342 109.678 16.9576C110.984 17.6609 112.009 18.6657 112.753 19.9719C113.516 21.278 113.898 22.7852 113.898 24.4933C113.898 26.2013 113.506 27.7085 112.723 29.0147C111.959 30.3208 110.914 31.3356 109.588 32.0591C108.282 32.7624 106.815 33.1141 105.187 33.1141ZM105.187 29.4367C105.951 29.4367 106.664 29.2558 107.327 28.8941C108.01 28.5123 108.553 27.9496 108.955 27.2061C109.357 26.4626 109.558 25.5583 109.558 24.4933C109.558 22.9058 109.136 21.69 108.292 20.846C107.468 19.9819 106.453 19.5499 105.247 19.5499C104.042 19.5499 103.027 19.9819 102.203 20.846C101.399 21.69 100.997 22.9058 100.997 24.4933C100.997 26.0808 101.389 27.3066 102.173 28.1707C102.976 29.0147 103.981 29.4367 105.187 29.4367Z" fill="white"/>
<path d="M137.732 15.9026C139.782 15.9026 141.429 16.5356 142.675 17.8016C143.941 19.0475 144.574 20.7958 144.574 23.0464V32.8428H140.354V23.6191C140.354 22.3129 140.023 21.3182 139.36 20.635C138.696 19.9317 137.792 19.58 136.647 19.58C135.501 19.58 134.587 19.9317 133.904 20.635C133.241 21.3182 132.909 22.3129 132.909 23.6191V32.8428H128.689V23.6191C128.689 22.3129 128.357 21.3182 127.694 20.635C127.031 19.9317 126.127 19.58 124.981 19.58C123.816 19.58 122.892 19.9317 122.208 20.635C121.545 21.3182 121.214 22.3129 121.214 23.6191V32.8428H116.994V16.1437H121.214V18.1633C121.756 17.46 122.449 16.9074 123.293 16.5055C124.158 16.1036 125.102 15.9026 126.127 15.9026C127.433 15.9026 128.599 16.1839 129.623 16.7466C130.648 17.2892 131.442 18.0729 132.005 19.0977C132.547 18.1332 133.331 17.3595 134.356 16.7767C135.401 16.194 136.526 15.9026 137.732 15.9026Z" fill="white"/>
<path d="M152.799 29.4969H159.731V32.8428H148.579V11.8032H152.799V29.4969Z" fill="white"/>
<path d="M164.554 14.1543C163.81 14.1543 163.187 13.9232 162.685 13.4611C162.203 12.9788 161.962 12.386 161.962 11.6826C161.962 10.9793 162.203 10.3965 162.685 9.93436C163.187 9.45208 163.81 9.21094 164.554 9.21094C165.297 9.21094 165.91 9.45208 166.393 9.93436C166.895 10.3965 167.146 10.9793 167.146 11.6826C167.146 12.386 166.895 12.9788 166.393 13.4611C165.91 13.9232 165.297 14.1543 164.554 14.1543ZM166.634 16.1437V32.8428H162.414V16.1437H166.634Z" fill="white"/>
<path d="M180.057 15.9026C182.046 15.9026 183.654 16.5356 184.88 17.8016C186.105 19.0475 186.718 20.7958 186.718 23.0464V32.8428H182.498V23.6191C182.498 22.2928 182.167 21.278 181.504 20.5747C180.841 19.8513 179.936 19.4896 178.791 19.4896C177.625 19.4896 176.701 19.8513 176.018 20.5747C175.355 21.278 175.023 22.2928 175.023 23.6191V32.8428H170.803V16.1437H175.023V18.2236C175.586 17.5002 176.299 16.9375 177.163 16.5356C178.047 16.1136 179.012 15.9026 180.057 15.9026Z" fill="white"/>
<path d="M206.255 24.1316C206.255 24.7344 206.215 25.277 206.134 25.7593H193.926C194.027 26.965 194.449 27.9094 195.192 28.5927C195.936 29.2759 196.85 29.6175 197.935 29.6175C199.503 29.6175 200.618 28.9443 201.281 27.598H205.833C205.351 29.2056 204.426 30.5318 203.06 31.5768C201.693 32.6016 200.015 33.1141 198.026 33.1141C196.418 33.1141 194.971 32.7624 193.685 32.0591C192.419 31.3356 191.425 30.3208 190.701 29.0147C189.998 27.7085 189.646 26.2013 189.646 24.4933C189.646 22.7651 189.998 21.2479 190.701 19.9417C191.405 18.6355 192.389 17.6308 193.655 16.9275C194.921 16.2241 196.378 15.8725 198.026 15.8725C199.613 15.8725 201.03 16.2141 202.276 16.8973C203.542 17.5805 204.517 18.5552 205.2 19.8212C205.903 21.067 206.255 22.5038 206.255 24.1316ZM201.884 22.9258C201.864 21.8407 201.472 20.9766 200.709 20.3336C199.945 19.6704 199.011 19.3389 197.905 19.3389C196.86 19.3389 195.976 19.6604 195.253 20.3034C194.549 20.9264 194.117 21.8005 193.957 22.9258H201.884Z" fill="white"/>
<path d="M0 2.04297V26.8579L13.7845 14.4504L0 2.04297Z" fill="white"/>
<path d="M37.7093 0H2.26926L19.9893 15.9499L37.7093 0Z" fill="white"/>
<path d="M29.6051 17.5208C30.0699 16.8218 30.619 16.1734 31.2473 15.5921C33.2179 13.7686 35.7795 12.7644 38.4603 12.7644C38.9758 12.7644 39.4825 12.8021 39.9785 12.8733V2.04297L26.1941 14.4504L29.6051 17.5208Z" fill="white"/>
<path d="M38.4604 15.8008C34.2748 15.8008 30.8695 19.206 30.8695 23.3917V31.3731C30.8695 33.8845 32.9127 35.9276 35.4241 35.9276C37.9354 35.9276 39.9786 33.8845 39.9786 31.3731V23.3917H36.9422V31.3731C36.9422 32.2102 36.2612 32.8913 35.4241 32.8913C34.5869 32.8913 33.9059 32.2102 33.9059 31.3731V23.3917C33.9059 20.8803 35.949 18.8371 38.4604 18.8371C40.9718 18.8371 43.0149 20.8803 43.0149 23.3917V31.3731C43.0149 35.5587 39.6097 38.964 35.4241 38.964C31.2384 38.964 27.8332 35.5587 27.8332 31.3731L27.8594 22.6327L27.8698 22.5073C27.9296 21.7871 28.0644 21.082 28.2646 20.3992L23.9249 16.493L19.9893 20.0354L16.0538 16.493L2.26926 28.9005H24.7968V31.3731C24.7968 37.233 29.5642 42.0003 35.4241 42.0003C41.2839 42.0003 46.0513 37.233 46.0513 31.3731V23.3917C46.0513 19.206 42.646 15.8008 38.4604 15.8008Z" fill="white"/>
</svg>
